<?xml version="1.0" encoding="utf-8"?>
<!-- Generator: Adobe Illustrator 19.1.0, SVG Export Plug-In . SVG Version: 6.00 Build 0)  -->
<svg version="1.2" baseProfile="tiny" id="Layer_1" xmlns="http://www.w3.org/2000/svg" xmlns:xlink="http://www.w3.org/1999/xlink"
	 x="0px" y="0px" width="77px" height="67px" viewBox="-31.1 363.4 77 67" xml:space="preserve">
<path fill="#FFFFFF" d="M38.6,363.6h-62.4c-3.8,0-6.9,3-6.9,6.7v53c0,3.7,3.1,6.7,6.9,6.7h62.4c3.8,0,6.9-3,6.9-6.7v-53
	C45.4,366.6,42.4,363.6,38.6,363.6z M43.9,423.4c0,2.8-2.4,5.2-5.4,5.2h-62.3c-3,0-5.4-2.3-5.4-5.2v-53c0-2.8,2.4-5.2,5.4-5.2h62.4
	c3,0,5.4,2.3,5.4,5.2v53H43.9z"/>
<path fill="#FFFFFF" d="M11.9,376.5h10.7c1,1.2,1.2,2.5,1.2,3.5c0,1.7-2.3,7.8-12.8,8.5v1.9c7.2-0.4,17.3-3.3,17.3-10.6
	c0-1.3-0.3-2.5-0.7-3.3h0.9c0.5,0,0.9-0.4,0.9-0.9s-0.4-0.9-0.9-0.9H11.9c-0.5,0-0.9,0.4-0.9,0.9C11,376.1,11.4,376.5,11.9,376.5z"
	/>
<path fill="#FFFFFF" d="M17.9,381.4c0-1.1-0.9-2-2-2s-2,0.9-2,2s0.9,2,2,2C17,383.4,17.9,382.5,17.9,381.4z"/>
<path fill="#FFFFFF" d="M-13.7,376.6h0.7c-0.4,0.8-0.7,2-0.7,3.2c0,7.3,10.1,10.2,17.2,10.6v-1.9c-10.4-0.8-12.8-6.9-12.8-8.5
	c0-1,0.3-2.3,1.1-3.4H2.3c0.5,0,0.9-0.4,0.9-0.9s-0.4-0.9-0.9-0.9h-16c-0.5,0-0.9,0.4-0.9,0.9S-14.2,376.6-13.7,376.6z"/>
<path fill="#FFFFFF" d="M-3.2,381.4c0,1.1,0.9,2,2,2s2-0.9,2-2s-0.9-2-2-2C-2.3,379.5-3.2,380.2-3.2,381.4z"/>
<polygon fill="#FFFFFF" points="4.8,392.1 4.8,418.4 10,418.4 10,392.1 7.4,394.6 "/>
<path fill="#FFFFFF" d="M-20.6,417c0,0.5,0.1,0.9,0.1,1.4h6.4v-3c0-11.2,7.7-20.5,17.7-22.4v-1.7C-10.1,392.9-20.6,403.8-20.6,417z"
	/>
<path fill="#FFFFFF" d="M11,391.1v1.7c10.1,1.9,17.7,11.2,17.7,22.4v3h6.4c0-0.5,0.1-0.9,0.1-1.4C35.2,403.8,24.7,392.9,11,391.1z"
	/>
<polygon fill="#FFFFFF" points="4.8,390.1 6.7,392.6 6.7,376.2 8,376.2 8,392.6 10,390.5 10,374.6 4.8,374.6 "/>
</svg>
