<?xml version="1.0" encoding="utf-8"?>
<!-- Generator: Adobe Illustrator 19.1.0, SVG Export Plug-In . SVG Version: 6.00 Build 0)  -->
<svg version="1.2" baseProfile="tiny" id="Layer_1" xmlns="http://www.w3.org/2000/svg" xmlns:xlink="http://www.w3.org/1999/xlink"
	 x="0px" y="0px" width="77px" height="67px" viewBox="-267 363 77 67" xml:space="preserve">
<g>
	<path d="M-197.3,363.3h-62.4c-3.8,0-6.9,3-6.9,6.7v53c0,3.7,3.1,6.7,6.9,6.7h62.4c3.8,0,6.9-3,6.9-6.7v-53
		C-190.5,366.3-193.5,363.3-197.3,363.3z M-192,423.1c0,2.8-2.4,5.2-5.4,5.2h-62.3c-3,0-5.4-2.3-5.4-5.2v-53c0-2.8,2.4-5.2,5.4-5.2
		h62.4c3,0,5.4,2.3,5.4,5.2v53H-192z"/>
	<path d="M-224,376.2h10.7c1,1.2,1.2,2.5,1.2,3.5c0,1.7-2.3,7.8-12.8,8.5v1.9c7.2-0.4,17.3-3.3,17.3-10.6c0-1.3-0.3-2.5-0.7-3.3h0.9
		c0.5,0,0.9-0.4,0.9-0.9s-0.4-0.9-0.9-0.9H-224c-0.5,0-0.9,0.4-0.9,0.9S-224.5,376.2-224,376.2z"/>
	<path d="M-218,381.1c0-1.1-0.9-2-2-2s-2,0.9-2,2s0.9,2,2,2S-218,382.2-218,381.1z"/>
	<path d="M-249.6,376.3h0.7c-0.4,0.8-0.7,2-0.7,3.2c0,7.3,10.1,10.2,17.2,10.6v-1.9c-10.4-0.8-12.8-6.9-12.8-8.5
		c0-1,0.3-2.3,1.1-3.4h10.5c0.5,0,0.9-0.4,0.9-0.9s-0.4-0.9-0.9-0.9h-16c-0.5,0-0.9,0.4-0.9,0.9S-250.1,376.3-249.6,376.3z"/>
	<path d="M-239.1,381.1c0,1.1,0.9,2,2,2s2-0.9,2-2s-0.9-2-2-2C-238.2,379.2-239.1,379.9-239.1,381.1z"/>
	<polygon points="-231.1,391.8 -231.1,418.1 -225.9,418.1 -225.9,391.8 -228.5,394.3 	"/>
	<path d="M-256.5,416.7c0,0.5,0.1,0.9,0.1,1.4h6.4v-3c0-11.2,7.7-20.5,17.7-22.4V391C-246,392.6-256.5,403.5-256.5,416.7z"/>
	<path d="M-224.9,390.8v1.7c10.1,1.9,17.7,11.2,17.7,22.4v3h6.4c0-0.5,0.1-0.9,0.1-1.4C-200.7,403.5-211.2,392.6-224.9,390.8z"/>
	<polygon points="-231.1,389.8 -229.2,392.3 -229.2,375.9 -227.9,375.9 -227.9,392.3 -225.9,390.2 -225.9,374.3 -231.1,374.3 	"/>
</g>
</svg>
