<?xml version="1.0" encoding="utf-8"?>
<!-- Generator: Adobe Illustrator 19.1.0, SVG Export Plug-In . SVG Version: 6.00 Build 0)  -->
<svg version="1.1" id="Layer_1" xmlns="http://www.w3.org/2000/svg" xmlns:xlink="http://www.w3.org/1999/xlink" x="0px" y="0px"
	 viewBox="-173 -116 612 792" style="enable-background:new -173 -116 612 792;" xml:space="preserve">
<style type="text/css">
	.st0{fill:#FFBC27;}
	.st1{fill:#64A082;}
	.st2{fill:#81C2A4;}
	.st3{fill:#ED7270;}
	.st4{fill:#94BBA3;}
	.st5{fill:#E0827E;}
	.st6{fill:#F48780;}
	.st7{fill:#F49898;}
	.st8{fill:#D85959;}
	.st9{fill:#AA4444;}
	.st10{fill:#823434;}
</style>
<g id="ombre">
</g>
<g>
	<polygon class="st0" points="-18.2,354.9 -17.4,372.8 -7.4,384.2 	"/>
	<path class="st1" d="M274.2,358.5C266,326.1,203.9,301,128.4,301c-81,0-146.7,29-146.7,64.8c0,35.8,65.7,64.8,146.7,64.8
		c77.4,0,140.8-26.5,146.3-60l0.4-15.5L274.2,358.5"/>
	<path class="st2" d="M128.4,290.1c81,0,146.7,29,146.7,64.8s-65.7,64.8-146.7,64.8c-81,0-146.7-29-146.7-64.8
		S47.4,290.1,128.4,290.1"/>
	<path class="st3" d="M51.6,318.5c0,0,6,24,8.8,27.8c5.4,8.2,30.4,2.9,32.9,1.4c2.5-1.5,5.8-31.2,5.8-31.2L51.6,318.5"/>
	<path class="st4" d="M55.6,333.2c0,0.2,0.1,0.3,0.1,0.4c0,0,0,0,0,0.1C55.7,333.5,55.6,333.3,55.6,333.2"/>
	<path class="st5" d="M52.3,320.3c0,0,2.4,9.4,3.3,12.9c0,0.2,0.1,0.3,0.1,0.5c5.6,11.8,26.3,14.9,26.3,14.9L52.3,320.3"/>
	<path class="st3" d="M159.9,330.4c0,0,5.3,21.3,7.8,24.6c4.8,7.3,27,2.6,29.2,1.3c2.2-1.3,5.2-27.7,5.2-27.7L159.9,330.4"/>
	<path class="st4" d="M166.5,352.6L166.5,352.6l0.3,0.7C166.7,353.1,166.6,352.8,166.5,352.6 M201.4,334.4L201.4,334.4
		c-0.1,1-0.3,2.1-0.4,3.2c0-0.1,0-0.1,0-0.1L201.4,334.4"/>
	<path class="st5" d="M201.4,334.4l-11,2.7l-23.9,15.5c0.1,0.3,0.2,0.5,0.3,0.7l0.9,1.7c0.9,0.1,1.8,0.1,2.6,0.1
		c20.7,0,30-16.2,30.7-17.5C201.1,336.5,201.3,335.4,201.4,334.4"/>
	<path class="st3" d="M104.6,351.2c0,0,6,24,8.8,27.8c5.4,8.2,30.4,2.9,32.9,1.4c2.5-1.5,5.8-31.2,5.8-31.2L104.6,351.2"/>
	<path class="st4" d="M106.3,357.8l-0.1,0c0,0,1.2,6,2.3,7.9c0,0,0,0,0,0C107.7,363,107,360.2,106.3,357.8"/>
	<path class="st5" d="M151,357.3l-44.7,0.5c0.6,2.4,1.4,5.2,2.2,7.9c3.1,2.5,7.2,3.4,11.6,3.4c13.7,0,30.6-8.8,30.6-8.8L151,357.3"
		/>
	<ellipse class="st6" cx="128.3" cy="284.7" rx="86" ry="75.7"/>
	
		<ellipse transform="matrix(-0.5113 -0.8594 0.8594 -0.5113 24.1838 639.4858)" class="st3" cx="193.9" cy="312.9" rx="18.1" ry="26.9"/>
	
		<ellipse transform="matrix(-0.5113 -0.8594 0.8594 -0.5113 25.9475 650.0663)" class="st7" cx="197.8" cy="317.7" rx="16.6" ry="25.6"/>
	<path class="st7" d="M120.5,286.8l-12,1.8c0,0-9.4-35.5,4.2-43c11-5,30.5,9,30.5,9L120.5,286.8z"/>
	<path class="st6" d="M120.5,286.8c0,0-12.7-23.4-5.8-35.2c8-7.1,28.6,3,28.6,3L120.5,286.8z"/>
	<path class="st8" d="M122.7,283.7c0,0-11-22.4-4.2-29.7s22.1,4.3,22.1,4.3L122.7,283.7z"/>
	<path class="st7" d="M172.5,233.2l8.5,8.2c0,0,14.2-0.2,22.4,6.2c2.9,1.3,12.4-31,0-34.7C185,209,172.5,233.2,172.5,233.2z"/>
	<path class="st6" d="M181,241.5c0,0,10-27.5,22.7-25.8c12.2,4-0.4,32-0.4,32L181,241.5z"/>
	<path class="st8" d="M185.5,242.7c0,0,5.6-18.9,15.4-17.6c8.3,1.3,2.6,22.6,2.6,22.6L185.5,242.7z"/>
	<ellipse class="st8" cx="194.5" cy="316" rx="3.2" ry="6.4"/>
	<ellipse class="st9" cx="193.8" cy="316" rx="2.6" ry="6.4"/>
	<ellipse class="st8" cx="207.8" cy="311.6" rx="3" ry="6.1"/>
	<ellipse class="st9" cx="207.1" cy="311.6" rx="2.4" ry="6.1"/>
	<ellipse cx="158.1" cy="287.9" rx="4.4" ry="6.6"/>
	<ellipse cx="198.8" cy="271.6" rx="3.4" ry="5.2"/>
	<path class="st9" d="M105.3,228.2c0,0,24.7,1.9,39.2,13c2,3.2,10-3.4,5.5-6.5c-18-12-37.4-12-37.4-12L105.3,228.2z"/>
	<path class="st10" d="M105.3,228.2c0,0,24.7,3.4,39.2,13.1c2,2.8,8.5-2.3,4-4.9c-18-10.6-37.6-12.3-37.6-12.3L105.3,228.2z"/>
</g>
</svg>
