<?xml version="1.0" encoding="utf-8"?>
<!-- Generator: Adobe Illustrator 19.1.0, SVG Export Plug-In . SVG Version: 6.00 Build 0)  -->
<svg version="1.1" id="Layer_1" xmlns="http://www.w3.org/2000/svg" xmlns:xlink="http://www.w3.org/1999/xlink" x="0px" y="0px"
	 width="195.7px" height="195.7px" viewBox="-861 443.3 195.7 195.7" style="enable-background:new -861 443.3 195.7 195.7;"
	 xml:space="preserve">
<path d="M-736.5,584.7h-0.4c-7,11.1-20.7,16.1-33.7,16.1c-33.1,0-56.4-27.6-56.4-59.7c0-32,22.9-59.4,55.9-59.4
	c12.8,0,26.3,4.8,34.6,14.6v-10.9h39.6v111.7h-39.6V584.7z M-786.2,541.4c0,14.2,9.4,25,25.5,25c16.1,0,25.5-10.9,25.5-25
	c0-13.7-9.4-25.2-25.5-25.2C-776.8,516.2-786.2,527.7-786.2,541.4z"/>
</svg>
