<?xml version="1.0" encoding="utf-8"?>
<!-- Generator: Adobe Illustrator 19.1.0, SVG Export Plug-In . SVG Version: 6.00 Build 0)  -->
<svg version="1.1" id="Layer_1" xmlns="http://www.w3.org/2000/svg" xmlns:xlink="http://www.w3.org/1999/xlink" x="0px" y="0px"
	 viewBox="2336 277.8 301.2 184.4" style="enable-background:new 2336 277.8 301.2 184.4;" xml:space="preserve">
<g>
	<g>
		<path d="M2426.5,446.1h-0.4c-7,11.1-20.7,16.1-33.7,16.1c-33.1,0-56.4-27.6-56.4-59.7c0-32,22.9-59.4,55.9-59.4
			c12.8,0,26.3,4.8,34.6,14.6v-10.9h39.7v111.7h-39.6v-12.4L2426.5,446.1L2426.5,446.1z M2376.9,402.8c0,14.2,9.4,25,25.5,25
			c16.1,0,25.5-10.9,25.5-25c0-13.7-9.4-25.2-25.5-25.2C2386.3,377.5,2376.9,389,2376.9,402.8z"/>
	</g>
	<g>
		<path d="M2542.9,443.8c0,8.8-7.1,16.1-16.1,16.1c-8.9,0-16.1-7.3-16.1-16.1c0-8.9,7.2-16.1,16.1-16.1
			C2535.9,427.7,2542.9,434.8,2542.9,443.8z"/>
		<path d="M2590.1,443.8c0,8.8-7.1,16.1-16.1,16.1c-8.9,0-16.1-7.3-16.1-16.1c0-8.9,7.2-16.1,16.1-16.1
			C2582.9,427.7,2590.1,434.8,2590.1,443.8z"/>
		<path d="M2637.2,443.8c0,8.8-7.1,16.1-16.1,16.1c-8.9,0-16.1-7.3-16.1-16.1c0-8.9,7.2-16.1,16.1-16.1
			C2630.1,427.7,2637.2,434.8,2637.2,443.8z"/>
	</g>
	<path d="M2370,277.8h37l28.3,36h-25.2L2370,277.8z"/>
</g>
</svg>
