<?xml version="1.0" encoding="utf-8"?>
<!-- Generator: Adobe Illustrator 19.1.0, SVG Export Plug-In . SVG Version: 6.00 Build 0)  -->
<svg version="1.1" id="Layer_1" xmlns="http://www.w3.org/2000/svg" xmlns:xlink="http://www.w3.org/1999/xlink" x="0px" y="0px"
	 viewBox="1496.2 556.4 1671 236.4" style="enable-background:new 1496.2 556.4 1671 236.4;" xml:space="preserve">
<style type="text/css">
	.st0{fill:#FFFFFF;}
</style>
<g>
	<g>
		<path class="st0" d="M1620.5,674.6c0,16.8-0.2,31.1-12.8,45.1c-12.2,13.7-30.9,19.8-49,19.8c-34.2,0-61.4-19.8-62.5-62.5h41.6
			c0.2,21.1,8.3,27,20.7,27c15.9,0,20-7.4,20-26.8v-68.8h-17v-35.5h76.2v35.5h-17.2L1620.5,674.6L1620.5,674.6z"/>
		<path class="st0" d="M1674.6,645h-25.2l28.3-72h37L1674.6,645z"/>
		<path class="st0" d="M1814.3,724.7h-0.4c-7,11.1-20.7,16.1-33.7,16.1c-33.1,0-56.4-27.6-56.4-59.7c0-32,22.9-59.4,55.9-59.4
			c12.8,0,26.3,4.8,34.6,14.6v-10.9h39.7v111.7h-39.6L1814.3,724.7L1814.3,724.7L1814.3,724.7z M1764.7,681.3c0,14.2,9.4,25,25.5,25
			s25.5-10.9,25.5-25c0-13.7-9.4-25.2-25.5-25.2S1764.7,667.6,1764.7,681.3z"/>
		<path class="st0" d="M1919.1,638c7.2-11.1,20.7-16.3,33.7-16.3c33.3,0,56.4,27.9,56.4,59.9c0,32.2-22.9,59.2-55.9,59.2
			c-12.8,0-26.1-4.6-34.6-14.4v66.4h-39.6V625.4h39.6V638H1919.1z M1917.4,681.3c0,14.2,9.4,25,25.5,25s25.5-10.9,25.5-25
			c0-13.7-9.4-25.2-25.5-25.2C1926.7,656.1,1917.4,667.6,1917.4,681.3z"/>
		<path class="st0" d="M2067.7,638c7.2-11.1,20.7-16.3,33.7-16.3c33.3,0,56.4,27.9,56.4,59.9c0,32.2-22.9,59.2-55.9,59.2
			c-12.8,0-26.1-4.6-34.6-14.4v66.4h-39.6V625.4h39.6V638H2067.7z M2065.9,681.3c0,14.2,9.4,25,25.5,25c16.1,0,25.5-10.9,25.5-25
			c0-13.7-9.4-25.2-25.5-25.2C2075.3,656.1,2065.9,667.6,2065.9,681.3z"/>
		<path class="st0" d="M2217.5,643.7c7.6-13.7,20.7-19.8,36.1-19.8h7.6V662c-5.4-3-10.7-3.7-16.8-3.7c-22,0-27.4,14.6-27.4,33.7
			v45.1h-39.6V625.4h39.6v18.3L2217.5,643.7L2217.5,643.7z"/>
		<path class="st0" d="M2307.5,687.9c0,16.1,8.5,24.8,24.8,24.8c8.5,0,14.6-2.8,18.9-10.2h38.1c-6.3,26.3-31.3,38.3-56.8,38.3
			c-37,0-64.6-20.9-64.6-59.4c0-37.2,25.5-59.6,61.8-59.6c38.7,0,61.2,23.9,61.2,62v4.1H2307.5L2307.5,687.9z M2354,665
			c-2-10.7-11.8-17.6-22.4-17.6c-11.5,0-21.1,6.1-23.5,17.6H2354z"/>
		<path class="st0" d="M2449,639.8c9.1-13.5,20.2-18.1,35.7-18.1c30,0,42,18.9,42,46.4v69h-39.6v-54.4c0-10.7,1.7-29.4-17.8-29.4
			c-16.1,0-20.7,12-20.7,25.9v57.9H2409V625.4h39.6v14.4H2449L2449,639.8z"/>
		<path class="st0" d="M2636.5,724.7c-7,11.1-20.7,16.1-33.7,16.1c-33.1,0-56.4-27.6-56.4-59.7c0-32,22.9-59.4,55.9-59.4
			c12.8,0,26.3,4.8,34.6,14.6v-79.9h39.6v180.7H2637v-12.4H2636.5L2636.5,724.7z M2587.3,681.3c0,14.2,9.4,25,25.5,25
			s25.5-10.9,25.5-25c0-13.7-9.4-25.2-25.5-25.2S2587.3,667.6,2587.3,681.3z"/>
		<path class="st0" d="M2775.3,654.1c-6.1-3.3-14.6-5.4-21.3-5.4c-4.6,0-12.4,2-12.4,7.6c0,7.6,12.4,8.7,17.8,9.8
			c18.5,3.7,32.4,12.4,32.4,33.1c0,29.4-26.8,41.6-52.7,41.6c-15.9,0-31.6-4.6-45.1-12.8l14.4-27.6c8.1,5.7,21.5,11.3,31.3,11.3
			c5,0,12.4-2.4,12.4-8.5c0-8.7-12.4-9.1-24.8-12.4c-12.4-3.3-24.8-9.4-24.8-29.4c0-27.4,24.8-39.6,49.2-39.6
			c12.6,0,25.2,2,36.8,7.2L2775.3,654.1z"/>
		<path class="st0" d="M2956.5,724.7h-0.4c-7,11.1-20.7,16.1-33.7,16.1c-33.1,0-56.4-27.6-56.4-59.7c0-32,22.9-59.4,55.9-59.4
			c12.8,0,26.3,4.8,34.6,14.6v-10.9h39.7v111.7h-39.6v-12.4H2956.5L2956.5,724.7z M2906.9,681.4c0,14.2,9.4,25,25.5,25
			s25.5-10.9,25.5-25c0-13.7-9.4-25.2-25.5-25.2C2916.3,656.1,2906.9,667.6,2906.9,681.4z"/>
	</g>
	<g>
		<path class="st0" d="M3072.9,722.4c0,8.8-7.1,16.1-16.1,16.1c-8.9,0-16.1-7.3-16.1-16.1c0-8.9,7.2-16.1,16.1-16.1
			C3065.9,706.3,3072.9,713.4,3072.9,722.4z"/>
		<path class="st0" d="M3120.1,722.4c0,8.8-7.1,16.1-16.1,16.1c-8.9,0-16.1-7.3-16.1-16.1c0-8.9,7.2-16.1,16.1-16.1
			C3112.9,706.3,3120.1,713.4,3120.1,722.4z"/>
		<path class="st0" d="M3167.2,722.4c0,8.8-7.1,16.1-16.1,16.1c-8.9,0-16.1-7.3-16.1-16.1c0-8.9,7.2-16.1,16.1-16.1
			C3160.1,706.3,3167.2,713.4,3167.2,722.4z"/>
	</g>
	<path class="st0" d="M2900,556.4h37l28.3,36h-25.2L2900,556.4z"/>
</g>
</svg>
