<?xml version="1.0" encoding="utf-8"?>
<!-- Generator: Adobe Illustrator 17.1.0, SVG Export Plug-In . SVG Version: 6.00 Build 0)  -->
<!DOCTYPE svg PUBLIC "-//W3C//DTD SVG 1.1//EN" "http://www.w3.org/Graphics/SVG/1.1/DTD/svg11.dtd">
<svg version="1.1" id="Layer_1" xmlns="http://www.w3.org/2000/svg" xmlns:xlink="http://www.w3.org/1999/xlink" x="0px" y="0px"
	 viewBox="43 28 64 64" enable-background="new 43 28 64 64" xml:space="preserve">
<path d="M75,28c-17.6,0-32,14.4-32,32s14.4,32,32,32s32-14.4,32-32S92.6,28,75,28z M75,86.7c-14.7,0-26.7-12-26.7-26.7
	s12-26.7,26.7-26.7s26.7,12,26.7,26.7S89.7,86.7,75,86.7z"/>
<path d="M87.5,50.1c-1.1-1.1-2.7-1.1-3.7,0l-8,8c-1.1,1.1-1.1,2.7,0,3.7l8,8c0.5,0.5,1.2,0.8,1.9,0.8c0.7,0,1.3-0.3,1.9-0.8
	c1.1-1.1,1.1-2.7,0-3.7L81.4,60l6.1-6.1C88.6,52.8,88.6,51.2,87.5,50.1z"/>
<path d="M68.1,60l6.1-6.1c1.1-1.1,1.1-2.7,0-3.7c-1.1-1.1-2.7-1.1-3.7,0l-8,8c-1.1,1.1-1.1,2.7,0,3.7l8,8c0.5,0.5,1.2,0.8,1.9,0.8
	c0.7,0,1.3-0.3,1.9-0.8c1.1-1.1,1.1-2.7,0-3.7L68.1,60z"/>
</svg>
