<?xml version="1.0" encoding="utf-8"?>
<!-- Generator: Adobe Illustrator 19.1.0, SVG Export Plug-In . SVG Version: 6.00 Build 0)  -->
<svg version="1.1" id="Layer_1" xmlns="http://www.w3.org/2000/svg" xmlns:xlink="http://www.w3.org/1999/xlink" x="0px" y="0px"
	 width="250px" height="250px" viewBox="0 0 250 250" enable-background="new 0 0 250 250" xml:space="preserve">
<g>
	<g>
		<path fill="#FFFFFF" d="M111.2,194.1c-9.7,0-17.5-4.8-21.2-10.9c-2.4-3.6-4.8-9.7-4.8-15.1c0-2.4,1.8-3.6,4.2-3.6
			c2.4,0,3.6,1.8,3.6,4.2c0,3,1.2,7.9,3,10.9c3,4.2,10.3,8.5,19.4,6.7c9.7-1.8,12.7-9.1,17.5-21.8c1.8-4.8,4.2-10.9,7.3-16.3
			c2.4-4.8,5.4-9.1,8.5-13.3c4.2-6,8.5-12.1,10.9-18.7c4.8-13.9,2.4-27.2-5.4-37.5c-8.5-10.3-21.8-15.1-36.9-13.9
			c-13.9,1.2-21.8,6.7-27.2,18.1c-1.2,1.8-2.4,4.8-2.4,7.3s-1.8,3.6-4.2,3.6c-2.4,0-3.6-1.8-3.6-3.6c0-4.2,2.4-9.1,3-10.9
			c6.7-13.9,16.9-20.6,34.5-23c17.5-1.8,33.9,4.2,43.5,16.3s12.1,28.4,6.7,44.8c-2.4,7.3-7.3,13.9-11.5,20.6c-3,4.2-6,8.5-8.5,12.7
			c-3,4.8-4.8,10.3-6.7,15.1c-4.8,12.1-9.1,23.6-23.6,26.6C115.4,193.5,113,194.1,111.2,194.1z"/>
	</g>
</g>
<g>
	<path fill="#FFFFFF" d="M136.5,131.7c-0.6-7.9,4.2-9.7,4.8-16.9c0.6-7.9-3.6-16.3-9.1-18.1c-10.3-3.6-20,3-20,12.1
		c0,11.5,15.7,13.9,16.3,26c0,10.3-6.7,29.6-20.6,26c-4.2-1.2-5.4-4.8-5.4-7.9c-0.6-10.3,10.9-12.7,10.3-21.8c0-8.5-5.4-6-9.1-14.5
		c-4.8-27.2,27.8-36.3,39.9-18.7C150.4,106.3,148,127.5,136.5,131.7z"/>
</g>
</svg>
