<?xml version="1.0" encoding="utf-8"?>
<!-- Generator: Adobe Illustrator 19.1.0, SVG Export Plug-In . SVG Version: 6.00 Build 0)  -->
<svg version="1.1" id="Layer_1" xmlns="http://www.w3.org/2000/svg" xmlns:xlink="http://www.w3.org/1999/xlink" x="0px" y="0px"
	 width="350px" height="100px" viewBox="0 0 350 100" style="enable-background:new 0 0 350 100;" xml:space="preserve">
<style type="text/css">
	.st0{fill:#FFFFFF;}
</style>
<path class="st0" d="M48.9,39.3h7.4c0.2,0,0.4,0.2,0.4,0.4c0,0.2-0.2,0.4-0.4,0.4h-0.4c0.2,0.4,0.3,0.9,0.3,1.5
	c0,3.2-4.5,4.6-7.7,4.7v-0.8c4.7-0.3,5.7-3.1,5.7-3.8c0-0.5-0.1-1-0.5-1.6h-4.8c-0.2,0-0.4-0.2-0.4-0.4
	C48.5,39.5,48.7,39.3,48.9,39.3z M49.8,42.3c0-0.5,0.4-0.9,0.9-0.9c0.5,0,0.9,0.4,0.9,0.9c0,0.5-0.4,0.9-0.9,0.9
	C50.2,43.2,49.8,42.8,49.8,42.3z M37.5,39.3h7.2c0.2,0,0.4,0.2,0.4,0.4c0,0.2-0.2,0.4-0.4,0.4H40c-0.4,0.5-0.5,1.1-0.5,1.5
	c0,0.8,1,3.5,5.7,3.8v0.8c-3.2-0.2-7.7-1.5-7.7-4.7c0-0.6,0.1-1.1,0.3-1.4h-0.3c-0.2,0-0.4-0.2-0.4-0.4
	C37.1,39.5,37.3,39.3,37.5,39.3z M43.9,42.3c0,0.5-0.4,0.9-0.9,0.9c-0.5,0-0.9-0.4-0.9-0.9c0-0.5,0.4-0.9,0.9-0.9
	C43.5,41.5,43.9,41.9,43.9,42.3z M45.2,47.5c-4.5,0.9-7.9,5-7.9,10v1.3h-2.9c0-0.2,0-0.4,0-0.6c0-5.9,4.7-10.7,10.8-11.5V47.5z
	 M48.1,58.9h-2.3V47.1l1.2,1.2l1.2-1.2V58.9z M48.1,46.4l-0.9,0.9V40h-0.6v7.3l-0.9-1.1v-6.9h2.3V46.4z M59.3,58.8h-2.9v-1.3
	c0-5-3.4-9.2-7.9-10v-0.8c6.1,0.8,10.8,5.6,10.8,11.5C59.3,58.4,59.3,58.6,59.3,58.8z"/>
<g>
	<path class="st0" d="M98.6,50.7c-1.7,0.2-1.8,0.4-1.8,2.2v2.6c0,1,0,2,0.2,2.9c-1.8,0.4-4.1,1.1-6.4,1.1c-6.3,0-10.5-4.1-10.5-10.1
		c0-6.9,5.3-10.3,10.9-10.3c2.4,0,4.6,0.7,5.5,0.9c0.1,1,0.2,2.7,0.4,4.7l-0.8,0.2C95.5,41,93.4,40,90.6,40c-4.4,0-7.6,3.4-7.6,8.9
		c0,4.4,2.4,9.4,7.9,9.4c1,0,1.9-0.2,2.5-0.5c0.6-0.3,0.9-0.7,0.9-2v-2.5c0-2.2-0.2-2.4-3-2.6v-0.8h7.2V50.7z"/>
	<path class="st0" d="M103.8,48.6c0.9-1.5,2.1-3.2,3.4-3.2c1,0,1.7,0.8,1.7,1.5c0,0.6-0.4,1.2-0.9,1.5c-0.3,0.1-0.6,0.1-0.7-0.1
		c-0.4-0.4-0.8-0.6-1.2-0.6c-0.7,0-1.7,0.9-2.3,2.5v5.5c0,2,0.1,2.2,2.3,2.3v0.8h-6.6v-0.8c1.8-0.2,2-0.4,2-2.3v-6.2
		c0-2-0.1-2.1-1.8-2.3v-0.7c1.4-0.2,2.7-0.6,4-1.2L103.8,48.6L103.8,48.6z"/>
	<path class="st0" d="M118.8,59.2c-0.4,0-1-0.3-1.3-0.6c-0.4-0.4-0.5-0.8-0.7-1.3c-1.1,0.8-2.5,1.9-3.4,1.9c-2,0-3.4-1.8-3.4-3.7
		c0-1.5,0.7-2.4,2.3-3c1.7-0.6,3.8-1.4,4.4-1.9v-0.5c0-2.2-1-3.4-2.4-3.4c-0.5,0-1,0.2-1.3,0.6c-0.3,0.4-0.6,1.1-0.8,2
		c-0.1,0.5-0.4,0.7-0.8,0.7c-0.5,0-1.2-0.6-1.2-1.3c0-0.4,0.3-0.8,0.9-1.2c0.8-0.6,2.7-1.7,4.3-2.1c0.9,0,1.7,0.3,2.3,0.8
		c1,0.9,1.3,2.1,1.3,3.7v5.5c0,1.4,0.5,1.8,1,1.8c0.3,0,0.7-0.2,1-0.3l0.3,0.8L118.8,59.2z M116.7,51.7c-0.6,0.3-2,1-2.6,1.3
		c-1.1,0.5-1.7,1.1-1.7,2.2c0,1.5,1.1,2.3,2,2.3c0.7,0,1.7-0.5,2.3-1.1V51.7z"/>
	<path class="st0" d="M130.2,58.9v-0.8c1.7-0.2,1.9-0.4,1.9-2.5v-5c0-2.1-0.7-3.4-2.6-3.4c-1.1,0-2.3,0.8-3.1,1.5v7
		c0,2,0.2,2.2,1.9,2.3v0.8h-6.2v-0.8c1.9-0.2,2.1-0.4,2.1-2.3v-6.2c0-1.9-0.2-2-1.7-2.3v-0.7c1.4-0.3,2.7-0.6,4-1.2v2.4
		c0.6-0.5,1.2-0.9,1.9-1.4c0.8-0.5,1.5-0.9,2.4-0.9c2.3,0,3.7,1.7,3.7,4.6v5.8c0,2,0.2,2.2,1.8,2.3v0.8H130.2z"/>
	<path class="st0" d="M150.2,58.1c-0.6,0.1-2.8,0.5-4.4,1.1v-2l-1.7,1.1c-1.1,0.7-1.9,0.9-2.2,0.9c-2.3,0-5.3-2.2-5.3-6.4
		c0-4.2,3.4-7.4,7.3-7.4c0.4,0,1.3,0.1,1.9,0.4v-4.3c0-2-0.1-2-2.2-2.2v-0.8c1.5-0.2,3.4-0.7,4.4-1v17.9c0,1.6,0.2,1.7,1.3,1.8
		l0.9,0.1V58.1z M145.8,48.1c-0.7-1.1-1.9-1.5-2.9-1.5c-1.3,0-3.7,1.1-3.7,5.5c0,3.6,2.1,5.3,3.9,5.3c1,0,2.1-0.5,2.7-1V48.1z"/>
	<path class="st0" d="M165.6,39.4c3.6,0,6.3,0.8,8,2.5c1.4,1.4,2.4,3.6,2.4,6.5c0,3.6-1.3,6.3-3.5,8c-2.1,1.7-5,2.5-8.5,2.5h-6.7
		v-0.8c2.5-0.2,2.7-0.4,2.7-2.9V43.1c0-2.6-0.2-2.7-2.4-2.9v-0.8H165.6z M162.5,55c0,2.3,0.9,2.8,3,2.8c5.3,0,7.8-4.2,7.8-9
		c0-3.1-1.1-5.8-3.4-7.2c-1.3-0.8-2.9-1.2-4.8-1.2c-1.2,0-1.9,0.1-2.2,0.4c-0.3,0.2-0.4,0.5-0.4,1.7V55z"/>
	<path class="st0" d="M191.8,58.2c-0.6,0.1-1.4,0.3-2.2,0.5c-0.7,0.2-1.5,0.5-2,0.6l-0.2-0.2v-2.1c-0.7,0.5-1.3,1-2.1,1.6
		c-0.8,0.5-1.4,0.8-2.2,0.8c-1.9,0-3.5-1.2-3.5-4.5v-5.9c0-1.6-0.2-1.7-0.9-1.9l-0.8-0.2v-0.7c0.6,0,1.3-0.1,2.1-0.2
		c0.8-0.1,1.6-0.2,2-0.3c-0.1,0.9-0.1,2.3-0.1,4.3v4c0,2.7,1.2,3.4,2.5,3.4c1,0,2.1-0.5,3.1-1.4v-7c0-1.6-0.3-1.8-1.2-1.9l-1-0.2
		v-0.7c0.8,0,1.7-0.1,2.6-0.2c0.8-0.1,1.5-0.2,1.9-0.3v10c0,1.5,0.2,1.7,1.3,1.8l0.8,0V58.2z"/>
	<path class="st0" d="M203.1,56.2c-1.3,1.7-3.1,3.1-4.8,3.1c-3.6,0-5.7-3.1-5.7-6.3c0-2.3,1-4.3,2.9-5.9c1.5-1.2,3.2-1.7,4.2-1.7h0
		c1.2,0,2.1,0.4,2.6,0.8c0.4,0.3,0.5,0.6,0.5,0.9c0,0.6-0.6,1.3-0.9,1.3c-0.2,0-0.3-0.1-0.5-0.3c-0.9-0.8-1.9-1.2-2.9-1.2
		c-1.9,0-3.5,1.7-3.5,4.8c0,4.2,2.7,5.5,4.3,5.5c1.2,0,2.1-0.4,3.4-1.7L203.1,56.2z"/>
</g>
<rect x="68.6" y="39.3" class="st0" width="1" height="19.6"/>
<g>
	<path class="st0" d="M213,52.6c0,3.2,0.2,3.8,0.6,4.2c0.3,0.3,0.6,0.4,1.6,0.4h2.9c0.8,0,1.2-0.1,1.5-0.4c0.3-0.3,0.4-0.8,0.4-2.2
		h1.8c0,2.1-0.3,2.9-0.9,3.5c-0.5,0.5-1.1,0.7-2.4,0.7H215c-1.4,0-2.1-0.2-2.7-0.8c-0.8-0.9-1.1-2-1.1-6.2c0-4.2,0.3-5.3,1.1-6.2
		c0.6-0.6,1.3-0.8,2.7-0.8h2.9c1.3,0,2.1,0.2,2.7,0.8c0.9,0.9,1.1,2.1,1.1,6.1v0.5c0,0.2-0.1,0.3-0.3,0.3H213z M213,51h6.9
		c0-2.9-0.2-3.6-0.6-4c-0.3-0.3-0.6-0.4-1.6-0.4h-2.6c-0.9,0-1.3,0.1-1.6,0.4C213.3,47.4,213.1,48.1,213,51z"/>
	<path class="st0" d="M228.4,46.8c1.7-1.5,2.3-1.9,3.8-1.9h1.5c1.2,0,1.8,0.2,2.3,0.7c0.5,0.5,0.7,1.3,0.7,2.8v8.8h2.1v1.6h-6v-1.6
		h2.1v-8.7c0-0.8-0.1-1.2-0.4-1.5c-0.3-0.3-0.5-0.4-1.5-0.4h-1.4c-1.1,0-1.9,0.3-3.2,1.2v9.4h2.1v1.6h-6v-1.6h2.2V46.6h-2.2v-1.7h4
		V46.8z"/>
	<path class="st0" d="M246.2,58.9v-1.6h2.2V41.8h-2.2v-1.7h4v17.1h2.2v1.6H246.2z"/>
	<path class="st0" d="M254.8,58.9v-1.6h2.2V46.6h-2.2v-1.7h4v12.3h2.1v1.6H254.8z M256.8,40h2.1v2.5h-2.1V40z"/>
	<path class="st0" d="M264.4,62.1c-0.5-0.5-0.7-1.2-0.7-2.7h1.7c0,0.9,0.1,1.2,0.4,1.5c0.2,0.2,0.5,0.3,1.2,0.3h3.5
		c0.7,0,1-0.1,1.3-0.3c0.2-0.3,0.4-0.6,0.4-2.1v-2.7c-1.8,1.5-2.4,1.9-3.8,1.9H267c-1.5,0-2.2-0.3-2.8-0.9c-0.8-0.8-1-2-1-5.7
		s0.2-4.8,1-5.6c0.6-0.6,1.3-0.9,2.8-0.9h1.4c1.4,0,2,0.4,3.8,1.9v-1.8h4v1.7h-2.2v11.9c0,2.2-0.2,2.9-0.8,3.5
		c-0.4,0.5-1,0.7-2.3,0.7h-4.3C265.4,62.8,264.8,62.5,264.4,62.1z M265.6,55.8c0.3,0.3,0.7,0.5,1.8,0.5h1.5c1.1,0,1.9-0.3,3.2-1.2
		v-7.1c-1.4-0.9-2.1-1.3-3.3-1.3h-1.5c-1,0-1.5,0.2-1.8,0.5c-0.5,0.5-0.6,1.3-0.6,4.3C265,54.5,265.1,55.2,265.6,55.8z"/>
	<path class="st0" d="M282.4,46.8c1.7-1.5,2.3-1.9,3.8-1.9h1.5c1.2,0,1.8,0.2,2.3,0.7c0.5,0.5,0.7,1.3,0.7,2.8v8.8h2.1v1.6h-6v-1.6
		h2.1v-8.7c0-0.8-0.1-1.2-0.4-1.5c-0.3-0.3-0.5-0.4-1.5-0.4h-1.4c-1.1,0-1.9,0.3-3.2,1.2v9.4h2.1v1.6h-6v-1.6h2.2V46.6h-2.2v-1.7h4
		V46.8z"/>
	<path class="st0" d="M296.6,52.6c0,3.2,0.2,3.8,0.6,4.2c0.3,0.3,0.6,0.4,1.6,0.4h2.9c0.8,0,1.2-0.1,1.5-0.4
		c0.3-0.3,0.4-0.8,0.4-2.2h1.8c0,2.1-0.3,2.9-0.9,3.5c-0.5,0.5-1.1,0.7-2.4,0.7h-3.4c-1.4,0-2.1-0.2-2.7-0.8c-0.8-0.9-1.1-2-1.1-6.2
		c0-4.2,0.3-5.3,1.1-6.2c0.6-0.6,1.3-0.8,2.7-0.8h2.9c1.3,0,2.1,0.2,2.7,0.8c0.9,0.9,1.1,2.1,1.1,6.1v0.5c0,0.2-0.1,0.3-0.3,0.3
		H296.6z M296.6,51h6.9c0-2.9-0.2-3.6-0.6-4c-0.3-0.3-0.6-0.4-1.6-0.4h-2.6c-0.9,0-1.3,0.1-1.6,0.4C296.8,47.4,296.6,48.1,296.6,51z
		"/>
</g>
</svg>
