<?xml version="1.0" encoding="utf-8"?>
<!-- Generator: Adobe Illustrator 19.1.0, SVG Export Plug-In . SVG Version: 6.00 Build 0)  -->
<svg version="1.1" id="Layer_1" xmlns="http://www.w3.org/2000/svg" xmlns:xlink="http://www.w3.org/1999/xlink" x="0px" y="0px"
	 width="97.3px" height="97.3px" viewBox="0 0 97.3 97.3" enable-background="new 0 0 97.3 97.3" xml:space="preserve">
<path d="M57.9,62v2.7H40.3v-9.1c0-8.8,17.6-14.1,17.6-20.4c0-4.2-4.8-7.9-9.2-7.9c-8,0-9.3,4.9-9.3,14.6H21.9v-6.3
	c0-13.8,14.2-23.5,27.1-23.5c13.3,0,26.4,9.4,26.4,23.2c0,8-5.1,12.6-9.4,16.3C62.7,54.2,57.9,57.6,57.9,62z M38.7,76
	c0-5.2,4.8-9.1,10.3-9.1s10.3,3.9,10.3,9.1c0,5-4.6,9.2-10.3,9.2S38.7,81,38.7,76z"/>
</svg>
