<?xml version="1.0" encoding="utf-8"?>
<!-- Generator: Adobe Illustrator 19.1.0, SVG Export Plug-In . SVG Version: 6.00 Build 0)  -->
<svg version="1.1" id="Layer_1" xmlns="http://www.w3.org/2000/svg" xmlns:xlink="http://www.w3.org/1999/xlink" x="0px" y="0px"
	 width="1920px" height="1080px" viewBox="0 0 1920 1080" style="enable-background:new 0 0 1920 1080;" xml:space="preserve">
<g>
	<path d="M436.5,540c0,16.8-0.2,31.1-12.8,45.1c-12.2,13.7-30.9,19.8-49,19.8c-34.2,0-61.4-19.8-62.5-62.5h41.6
		c0.2,21.1,8.3,27,20.7,27c15.9,0,20-7.4,20-26.8v-68.8h-17v-35.5h76.2v35.5h-17.2V540z"/>
	<path d="M490.6,510.4h-25.2l28.3-72h37L490.6,510.4z"/>
	<path d="M630.3,590.1h-0.4c-7,11.1-20.7,16.1-33.7,16.1c-33.1,0-56.4-27.6-56.4-59.7c0-32,22.9-59.4,55.9-59.4
		c12.8,0,26.3,4.8,34.6,14.6v-10.9H670v111.7h-39.6v-12.4H630.3z M580.7,546.7c0,14.2,9.4,25,25.5,25s25.5-10.9,25.5-25
		c0-13.7-9.4-25.2-25.5-25.2C590.1,521.5,580.7,533,580.7,546.7z"/>
	<path d="M735.1,503.4c7.2-11.1,20.7-16.3,33.7-16.3c33.3,0,56.4,27.9,56.4,59.9c0,32.2-22.9,59.2-55.9,59.2
		c-12.8,0-26.1-4.6-34.6-14.4v66.4h-39.6V490.8h39.6v12.6H735.1z M733.4,546.7c0,14.2,9.4,25,25.5,25s25.5-10.9,25.5-25
		c0-13.7-9.4-25.2-25.5-25.2C742.7,521.5,733.4,533,733.4,546.7z"/>
	<path d="M883.7,503.4c7.2-11.1,20.7-16.3,33.7-16.3c33.3,0,56.4,27.9,56.4,59.9c0,32.2-22.9,59.2-55.9,59.2
		c-12.8,0-26.1-4.6-34.6-14.4v66.4h-39.6V490.8h39.6v12.6H883.7z M881.9,546.7c0,14.2,9.4,25,25.5,25s25.5-10.9,25.5-25
		c0-13.7-9.4-25.2-25.5-25.2C891.3,521.5,881.9,533,881.9,546.7z"/>
	<path d="M1033.5,509.1c7.6-13.7,20.7-19.8,36.1-19.8h7.6v38.1c-5.4-3-10.7-3.7-16.8-3.7c-22,0-27.4,14.6-27.4,33.7v45.1h-39.6
		V490.8h39.6v18.3L1033.5,509.1L1033.5,509.1z"/>
	<path d="M1123.5,553.3c0,16.1,8.5,24.8,24.8,24.8c8.5,0,14.6-2.8,18.9-10.2h38.1c-6.3,26.3-31.3,38.3-56.8,38.3
		c-37,0-64.6-20.9-64.6-59.4c0-37.2,25.5-59.6,61.8-59.6c38.7,0,61.2,23.9,61.2,62v4.1L1123.5,553.3L1123.5,553.3z M1170,530.4
		c-2-10.7-11.8-17.6-22.4-17.6c-11.5,0-21.1,6.1-23.5,17.6H1170z"/>
	<path d="M1265,505.2c9.1-13.5,20.2-18.1,35.7-18.1c30,0,42,18.9,42,46.4v69h-39.6v-54.4c0-10.7,1.7-29.4-17.8-29.4
		c-16.1,0-20.7,12-20.7,25.9v57.9H1225V490.8h39.6v14.4L1265,505.2L1265,505.2z"/>
	<path d="M1452.5,590.1c-7,11.1-20.7,16.1-33.7,16.1c-33.1,0-56.4-27.6-56.4-59.7c0-32,22.9-59.4,55.9-59.4
		c12.8,0,26.3,4.8,34.6,14.6v-79.9h39.6v180.7H1453v-12.4L1452.5,590.1L1452.5,590.1z M1403.3,546.7c0,14.2,9.4,25,25.5,25
		s25.5-10.9,25.5-25c0-13.7-9.4-25.2-25.5-25.2C1412.7,521.5,1403.3,533,1403.3,546.7z"/>
	<path d="M1591.3,519.5c-6.1-3.3-14.6-5.4-21.3-5.4c-4.6,0-12.4,2-12.4,7.6c0,7.6,12.4,8.7,17.8,9.8c18.5,3.7,32.4,12.4,32.4,33.1
		c0,29.4-26.8,41.6-52.7,41.6c-15.9,0-31.6-4.6-45.1-12.8l14.4-27.6c8.1,5.7,21.5,11.3,31.3,11.3c5,0,12.4-2.4,12.4-8.5
		c0-8.7-12.4-9.1-24.8-12.4c-12.4-3.3-24.8-9.4-24.8-29.4c0-27.4,24.8-39.6,49.2-39.6c12.6,0,25.2,2,36.8,7.2L1591.3,519.5z"/>
</g>
<g>
	<path d="M1685,587.8c0,8.8-7.1,16.1-16.1,16.1c-8.9,0-16.1-7.3-16.1-16.1c0-8.9,7.2-16.1,16.1-16.1
		C1677.9,571.7,1685,578.8,1685,587.8z"/>
	<path d="M1732.2,587.8c0,8.8-7.1,16.1-16.1,16.1c-8.9,0-16.1-7.3-16.1-16.1c0-8.9,7.2-16.1,16.1-16.1
		C1725,571.7,1732.2,578.8,1732.2,587.8z"/>
	<path d="M1779.3,587.8c0,8.8-7.1,16.1-16.1,16.1c-8.9,0-16.1-7.3-16.1-16.1c0-8.9,7.2-16.1,16.1-16.1
		C1772.2,571.7,1779.3,578.8,1779.3,587.8z"/>
</g>
</svg>
