<?xml version="1.0" encoding="utf-8"?>
<!-- Generator: Adobe Illustrator 19.1.0, SVG Export Plug-In . SVG Version: 6.00 Build 0)  -->
<svg version="1.1" id="Layer_1" xmlns="http://www.w3.org/2000/svg" xmlns:xlink="http://www.w3.org/1999/xlink" x="0px" y="0px"
	 viewBox="966.2 277.8 1671.1 236.4" style="enable-background:new 966.2 277.8 1671.1 236.4;" xml:space="preserve">
<g>
	<g>
		<path d="M1090.5,396c0,16.8-0.2,31.1-12.8,45.1c-12.2,13.7-30.9,19.8-49,19.8c-34.2,0-61.4-19.8-62.5-62.5h41.6
			c0.2,21.1,8.3,27,20.7,27c15.9,0,20-7.4,20-26.8v-68.8h-17v-35.5h76.2v35.5h-17.2V396z"/>
		<path d="M1144.6,366.4h-25.2l28.3-72h37L1144.6,366.4z"/>
		<path d="M1284.3,446.1h-0.4c-7,11.1-20.7,16.1-33.7,16.1c-33.1,0-56.4-27.6-56.4-59.7c0-32,22.9-59.4,55.9-59.4
			c12.8,0,26.3,4.8,34.6,14.6v-10.9h39.7v111.7h-39.6L1284.3,446.1L1284.3,446.1L1284.3,446.1z M1234.7,402.7c0,14.2,9.4,25,25.5,25
			c16.1,0,25.5-10.9,25.5-25c0-13.7-9.4-25.2-25.5-25.2C1244.1,377.5,1234.7,389,1234.7,402.7z"/>
		<path d="M1389.1,359.4c7.2-11.1,20.7-16.3,33.7-16.3c33.3,0,56.4,27.9,56.4,59.9c0,32.2-22.9,59.2-55.9,59.2
			c-12.8,0-26.1-4.6-34.6-14.4v66.4h-39.6V346.8h39.6v12.6H1389.1z M1387.4,402.7c0,14.2,9.4,25,25.5,25s25.5-10.9,25.5-25
			c0-13.7-9.4-25.2-25.5-25.2C1396.7,377.5,1387.4,389,1387.4,402.7z"/>
		<path d="M1537.7,359.4c7.2-11.1,20.7-16.3,33.7-16.3c33.3,0,56.4,27.9,56.4,59.9c0,32.2-22.9,59.2-55.9,59.2
			c-12.8,0-26.1-4.6-34.6-14.4v66.4h-39.6V346.8h39.6v12.6H1537.7z M1535.9,402.7c0,14.2,9.4,25,25.5,25s25.5-10.9,25.5-25
			c0-13.7-9.4-25.2-25.5-25.2S1535.9,389,1535.9,402.7z"/>
		<path d="M1687.5,365.1c7.6-13.7,20.7-19.8,36.1-19.8h7.6v38.1c-5.4-3-10.7-3.7-16.8-3.7c-22,0-27.4,14.6-27.4,33.7v45.1h-39.6
			V346.8h39.6v18.3L1687.5,365.1L1687.5,365.1z"/>
		<path d="M1777.5,409.3c0,16.1,8.5,24.8,24.8,24.8c8.5,0,14.6-2.8,18.9-10.2h38.1c-6.3,26.3-31.3,38.3-56.8,38.3
			c-37,0-64.6-20.9-64.6-59.4c0-37.2,25.5-59.6,61.8-59.6c38.7,0,61.2,23.9,61.2,62v4.1L1777.5,409.3L1777.5,409.3z M1824,386.4
			c-2-10.7-11.8-17.6-22.4-17.6c-11.5,0-21.1,6.1-23.5,17.6H1824z"/>
		<path d="M1919,361.2c9.1-13.5,20.2-18.1,35.7-18.1c30,0,42,18.9,42,46.4v69h-39.6v-54.4c0-10.7,1.7-29.4-17.8-29.4
			c-16.1,0-20.7,12-20.7,25.9v57.9H1879V346.8h39.6v14.4L1919,361.2L1919,361.2z"/>
		<path d="M2106.5,446.1c-7,11.1-20.7,16.1-33.7,16.1c-33.1,0-56.4-27.6-56.4-59.7c0-32,22.9-59.4,55.9-59.4
			c12.8,0,26.3,4.8,34.6,14.6v-79.9h39.6v180.7H2107v-12.4L2106.5,446.1L2106.5,446.1z M2057.3,402.7c0,14.2,9.4,25,25.5,25
			s25.5-10.9,25.5-25c0-13.7-9.4-25.2-25.5-25.2C2066.7,377.5,2057.3,389,2057.3,402.7z"/>
		<path d="M2245.3,375.5c-6.1-3.3-14.6-5.4-21.3-5.4c-4.6,0-12.4,2-12.4,7.6c0,7.6,12.4,8.7,17.8,9.8c18.5,3.7,32.4,12.4,32.4,33.1
			c0,29.4-26.8,41.6-52.7,41.6c-15.9,0-31.6-4.6-45.1-12.8l14.4-27.6c8.1,5.7,21.5,11.3,31.3,11.3c5,0,12.4-2.4,12.4-8.5
			c0-8.7-12.4-9.1-24.8-12.4c-12.4-3.3-24.8-9.4-24.8-29.4c0-27.4,24.8-39.6,49.2-39.6c12.6,0,25.2,2,36.8,7.2L2245.3,375.5z"/>
		<path d="M2426.5,446.1h-0.4c-7,11.1-20.7,16.1-33.7,16.1c-33.1,0-56.4-27.6-56.4-59.7c0-32,22.9-59.4,55.9-59.4
			c12.8,0,26.3,4.8,34.6,14.6v-10.9h39.7v111.7h-39.6v-12.4L2426.5,446.1L2426.5,446.1z M2376.9,402.8c0,14.2,9.4,25,25.5,25
			c16.1,0,25.5-10.9,25.5-25c0-13.7-9.4-25.2-25.5-25.2C2386.3,377.5,2376.9,389,2376.9,402.8z"/>
	</g>
	<g>
		<path d="M2542.9,443.8c0,8.8-7.1,16.1-16.1,16.1c-8.9,0-16.1-7.3-16.1-16.1c0-8.9,7.2-16.1,16.1-16.1
			C2535.9,427.7,2542.9,434.8,2542.9,443.8z"/>
		<path d="M2590.1,443.8c0,8.8-7.1,16.1-16.1,16.1c-8.9,0-16.1-7.3-16.1-16.1c0-8.9,7.2-16.1,16.1-16.1
			C2582.9,427.7,2590.1,434.8,2590.1,443.8z"/>
		<path d="M2637.2,443.8c0,8.8-7.1,16.1-16.1,16.1c-8.9,0-16.1-7.3-16.1-16.1c0-8.9,7.2-16.1,16.1-16.1
			C2630.1,427.7,2637.2,434.8,2637.2,443.8z"/>
	</g>
	<path d="M2370,277.8h37l28.3,36h-25.2L2370,277.8z"/>
</g>
</svg>
