<?xml version="1.0" encoding="utf-8"?>
<!-- Generator: Adobe Illustrator 19.1.0, SVG Export Plug-In . SVG Version: 6.00 Build 0)  -->
<svg version="1.1" id="Layer_1" xmlns="http://www.w3.org/2000/svg" xmlns:xlink="http://www.w3.org/1999/xlink" x="0px" y="0px"
	 width="100px" height="100px" viewBox="0 0 100 100" style="enable-background:new 0 0 100 100;" xml:space="preserve">
<style type="text/css">
	.st0{fill:#FF8022;}
</style>
<path class="st0" d="M57,14.8h26.7c0.8,0,1.5,0.7,1.5,1.5c0,0.8-0.7,1.5-1.5,1.5h-1.5c0.6,1.4,1.1,3.2,1.1,5.4
	c0,11.7-16.2,16.4-27.7,17.1v-3c16.8-1.2,20.6-11,20.6-13.8c-0.1-1.7-0.4-3.8-2-5.7H57c-0.8,0-1.5-0.7-1.5-1.5
	C55.5,15.5,56.2,14.8,57,14.8z M60.1,25.7c0-1.8,1.4-3.2,3.2-3.2c1.8,0,3.2,1.4,3.2,3.2c0,1.8-1.4,3.2-3.2,3.2
	C61.6,28.9,60.1,27.5,60.1,25.7z M15.7,14.9h25.9c0.8,0,1.5,0.7,1.5,1.5c0,0.8-0.7,1.5-1.5,1.5H24.8c-1.4,1.9-1.8,3.9-1.8,5.5
	c-0.1,2.7,3.8,12.5,20.6,13.8v3c-11.4-0.7-27.7-5.4-27.7-17.1c0-2.1,0.5-3.9,1.1-5.2h-1.1c-0.8,0-1.5-0.7-1.5-1.5
	C14.2,15.6,14.9,14.9,15.7,14.9z M39,25.7c0,1.8-1.4,3.2-3.2,3.2c-1.8,0-3.2-1.4-3.2-3.2c0-1.8,1.4-3.2,3.2-3.2
	C37.5,22.5,39,23.9,39,25.7z M43.5,44.2C27.3,47.3,15,62.3,15,80.4v4.8H4.6c0-0.7-0.1-1.5-0.1-2.2c0-21.2,17-38.7,39-41.5V44.2z
	 M53.9,85.2h-8.4V42.9l4.1,4.2l4.2-4.2V85.2z M53.9,40.3l-3.1,3.4V17.4h-2.1v26.3l-3.1-3.9V14.9h8.4V40.3z M94.4,85.2H84v-4.8
	c0-18.1-12.3-33.1-28.5-36.1v-2.8c22,2.8,39,20.3,39,41.5C94.5,83.7,94.4,84.4,94.4,85.2z"/>
</svg>
