<?xml version="1.0" encoding="utf-8"?>
<!-- Generator: Adobe Illustrator 17.1.0, SVG Export Plug-In . SVG Version: 6.00 Build 0)  -->
<!DOCTYPE svg PUBLIC "-//W3C//DTD SVG 1.1//EN" "http://www.w3.org/Graphics/SVG/1.1/DTD/svg11.dtd">
<svg version="1.1" id="Layer_1" xmlns="http://www.w3.org/2000/svg" xmlns:xlink="http://www.w3.org/1999/xlink" x="0px" y="0px"
	 viewBox="0 0 278.5 64" enable-background="new 0 0 278.5 64" xml:space="preserve">
<path fill="#FFFFFF" d="M56.9,6.8L49,0l-6.3,7.4c-4.2-2.5-9.1-3.9-14.4-3.9C12.7,3.4,0,16.1,0,31.7c0,6.8,2.4,13.1,6.5,18L0,57.2
	L7.9,64l6.5-7.6c4.1,2.3,8.8,3.6,13.8,3.6c15.6,0,28.3-12.7,28.3-28.3c0-6.6-2.3-12.7-6-17.5L56.9,6.8z M10.2,31.7
	c0-10,8.1-18.1,18.1-18.1c2.7,0,5.3,0.6,7.6,1.7L13.2,41.8C11.3,38.9,10.2,35.4,10.2,31.7z M46.4,31.7c0,10-8.1,18.1-18.1,18.1
	c-2.5,0-4.8-0.5-7-1.4l22.4-26.2C45.4,25,46.4,28.2,46.4,31.7z"/>
<g>
	<path fill="#FFFFFF" d="M225.8,58.3c0.6-0.8,1.2-1.7,1.7-2.7l-8.3-4.1h0c-0.7,2.6-4.4,5.4-9,5.4c-6.4,0-9.9-3.3-10.2-10.5h30
		c0.8-12.8-6-24.7-20.2-24.7c-12.6,0-21.3,9.5-21.3,22c0,5.9,1.7,10.9,4.8,14.7H225.8z M209.5,30.2c5.6,0,8.1,3.1,9.1,8.9H200
		C200.1,35.9,202.2,30.2,209.5,30.2z"/>
	<path fill="#FFFFFF" d="M244.6,58.3V42.5c0-8.5,2.7-11.9,8.9-11.9c5.3,0,7.3,3.4,7.3,10.2v17.4h11.4V38.8
		c0-10.3-3.1-17.2-15.2-17.2c-4.8,0-9.8,2.3-12.7,6.9H244v-5.8h-10.9v35.5H244.6z"/>
	<path fill="#FFFFFF" d="M157.9,58.3V42.5c0-8.5,2.7-11.9,8.9-11.9c5.3,0,7.3,3.4,7.3,10.2v17.4h11.4V38.8
		c0-10.3-3.1-17.2-15.2-17.2c-4.3,0-9.3,2.3-12.2,6.9h-0.2V6.9h-11.4v51.4H157.9z"/>
	<rect x="87" y="22.7" fill="#FFFFFF" width="11.4" height="35.5"/>
	<rect x="69.8" y="6.9" fill="#FFFFFF" width="11.4" height="51.4"/>
	<path fill="#FFFFFF" d="M139.8,58.3c1-1.4,1.9-2.9,2.5-4.6l-9.9-4.2c-1,4.5-4,7.4-8.9,7.4c-7.2,0-9.5-7.2-9.5-13.1
		c0-6.1,2.4-13.5,9.7-13.5c4.8,0,7.7,2.5,8.5,7.2l0,0.1l10.5-4c-2.4-8-10.3-11.9-18.9-11.9c-13.5,0-21.3,9.6-21.3,22.5
		c0,5.6,1.7,10.4,4.7,14.1L139.8,58.3L139.8,58.3z"/>
	<rect x="87" y="6.9" fill="#FFFFFF" width="11.4" height="9.4"/>
</g>
</svg>
