<?xml version="1.0" encoding="utf-8"?>
<!-- Generator: Adobe Illustrator 19.1.0, SVG Export Plug-In . SVG Version: 6.00 Build 0)  -->
<svg version="1.1" id="Layer_1" xmlns="http://www.w3.org/2000/svg" xmlns:xlink="http://www.w3.org/1999/xlink" x="0px" y="0px"
	 width="250px" height="250px" viewBox="0 0 250 250" enable-background="new 0 0 250 250" xml:space="preserve">
<g>
	<path fill="#FFFFFF" d="M167.3,125.8c-2.8-7.4-7.1-7.8-9.8-7.1v15.7l-2.7-2.7v-13c-0.4-1.7-1.3-4.9-3.4-6.1
		c-3.4-1.9-6.8-0.7-8.9,0.5v17.4l-2.7-2.7v-15c-3.8-7.8-9.9-6.4-13.6-4.3v18.3l-2.7-2.7V81.6c-0.8-9-16.1-8.5-16.1,0.6
		c0,8.6,0.1,46.6,0.1,46.6c0-0.1-0.1-0.1-0.1-0.2v4.8l-2.7-2.7v-6.1c-4.2-5.5-8.3-7-10.5-8.1c-5.9-2-16.9-2.1-9.6,7.5
		c19.7,26,16.2,44.1,29,47.9c12.2,3.7,36.2,4.4,43.8,0C167.6,167.5,169.3,131.1,167.3,125.8z"/>
</g>
</svg>
