<?xml version="1.0" encoding="utf-8"?>
<!-- Generator: Adobe Illustrator 17.1.0, SVG Export Plug-In . SVG Version: 6.00 Build 0)  -->
<!DOCTYPE svg PUBLIC "-//W3C//DTD SVG 1.1//EN" "http://www.w3.org/Graphics/SVG/1.1/DTD/svg11.dtd">
<svg version="1.1" id="Layer_1" xmlns="http://www.w3.org/2000/svg" xmlns:xlink="http://www.w3.org/1999/xlink" x="0px" y="0px"
	 viewBox="43 28 64 64" enable-background="new 43 28 64 64" xml:space="preserve">
<path d="M75,28c-17.6,0-32,14.4-32,32s14.4,32,32,32s32-14.4,32-32S92.6,28,75,28z M75,86.7c-14.7,0-26.7-12-26.7-26.7
	s12-26.7,26.7-26.7s26.7,12,26.7,26.7S89.7,86.7,75,86.7z"/>
<path d="M80.3,46.7c-1.5,0-2.7,1.2-2.7,2.7v21.3c0,1.5,1.2,2.7,2.7,2.7c1.5,0,2.7-1.2,2.7-2.7V49.3C83,47.9,81.8,46.7,80.3,46.7z"/>
<path d="M69.7,46.7c-1.5,0-2.7,1.2-2.7,2.7v21.3c0,1.5,1.2,2.7,2.7,2.7c1.5,0,2.7-1.2,2.7-2.7V49.3C72.3,47.9,71.1,46.7,69.7,46.7z"
	/>
</svg>
