<?xml version="1.0" encoding="utf-8"?>
<!-- Generator: Adobe Illustrator 17.1.0, SVG Export Plug-In . SVG Version: 6.00 Build 0)  -->
<!DOCTYPE svg PUBLIC "-//W3C//DTD SVG 1.1//EN" "http://www.w3.org/Graphics/SVG/1.1/DTD/svg11.dtd">
<svg version="1.1" id="Layer_1" xmlns="http://www.w3.org/2000/svg" xmlns:xlink="http://www.w3.org/1999/xlink" x="0px" y="0px"
	 viewBox="54 16.9 119.1 150.2" enable-background="new 54 16.9 119.1 150.2" xml:space="preserve">
<path d="M173.1,23.2c0-3.5-2.8-6.3-6.3-6.3c-3.5,0-6.3,2.8-6.3,6.3v99.5c-1.4-0.2-3-0.5-4.7-0.5c-5.6,0-11.8,2.1-17.4,5.6
	c-12.5,8.2-18.3,21.8-13.4,31.2c2.8,5.1,8.4,8.2,15.2,8.2c5.6,0,11.8-2.1,17.4-5.6c9.2-6.1,15.2-15.3,15.2-23.5v-0.2V23.2H173.1z
	 M151,151c-3.5,2.3-7.5,3.7-10.5,3.7c-0.9,0-3.5-0.2-4.2-1.6c-1.4-2.6,1.6-9.9,9.2-14.8c3.5-2.3,7.5-3.7,10.6-3.7
	c0.9,0,3.5,0.2,4.2,1.6C161.8,138.7,158.6,146.2,151,151z"/>
<path d="M67.9,41.6h74.4c3.5,0,6.3-2.8,6.3-6.3s-3.1-6.1-6.3-6.1H67.9c-3.5,0-6.3,2.8-6.3,6.3S64.4,41.6,67.9,41.6z"/>
<path d="M67.9,66.4h74.4c3.5,0,6.3-2.8,6.3-6.3s-2.8-6.3-6.3-6.3H67.9c-3.5,0-6.3,2.8-6.3,6.3S64.4,66.4,67.9,66.4z"/>
<path d="M67.9,91.1h74.4c3.5,0,6.3-2.8,6.3-6.3c0-3.5-2.8-6.3-6.3-6.3H67.9c-3.5,0-6.3,2.8-6.3,6.3C61.6,88.3,64.4,91.1,67.9,91.1z"
	/>
<path d="M67.9,115.9h74.4c3.5,0,6.3-2.8,6.3-6.3c0-3.5-3-6.1-6.3-6.1H67.9c-3.5,0-6.3,2.8-6.3,6.3S64.4,115.9,67.9,115.9z"/>
<path d="M105,128.2H67.9c-3.5,0-6.3,2.8-6.3,6.3s2.8,6.3,6.3,6.3H105c3.5,0,6.3-2.8,6.3-6.3C111.1,131,108.3,128.2,105,128.2z"/>
</svg>
