<?xml version="1.0" encoding="utf-8"?>
<!-- Generator: Adobe Illustrator 19.1.0, SVG Export Plug-In . SVG Version: 6.00 Build 0)  -->
<svg version="1.1" id="Layer_1" xmlns="http://www.w3.org/2000/svg" xmlns:xlink="http://www.w3.org/1999/xlink" x="0px" y="0px"
	 width="195.7px" height="195.7px" viewBox="-861 443.3 195.7 195.7" style="enable-background:new -861 443.3 195.7 195.7;"
	 xml:space="preserve">
<style type="text/css">
	.st0{display:none;}
</style>
<path d="M-788.2,471.9c7.2-11.1,20.7-16.3,33.7-16.3c33.3,0,56.4,27.9,56.4,59.9c0,32.2-22.9,59.2-55.9,59.2
	c-12.8,0-26.1-4.6-34.6-14.4v66.4h-39.6V459.3h39.6v12.6H-788.2z M-789.9,515.2c0,14.2,9.4,25,25.5,25c16.1,0,25.5-10.9,25.5-25
	c0-13.7-9.4-25.2-25.5-25.2C-780.6,490-789.9,501.5-789.9,515.2z"/>
<path class="st0" d="M-765,504.4c7.6-13.7,20.7-19.8,36.1-19.8h7.6v38.1c-5.4-3-10.7-3.7-16.8-3.7c-22,0-27.4,14.6-27.4,33.7v45.1
	H-805V486.1h39.6v18.3H-765z"/>
<path class="st0" d="M-785,547.8c0,16.1,8.5,24.8,24.8,24.8c8.5,0,14.6-2.8,18.9-10.2h38.1c-6.3,26.3-31.3,38.3-56.8,38.3
	c-37,0-64.6-20.9-64.6-59.4c0-37.2,25.5-59.6,61.8-59.6c38.7,0,61.2,23.9,61.2,62v4.1H-785z M-738.4,524.9
	c-2-10.7-11.8-17.6-22.4-17.6c-11.5,0-21.1,6.1-23.5,17.6H-738.4z"/>
<path class="st0" d="M-782,501.5c9.1-13.5,20.2-18.1,35.7-18.1c30,0,42,18.9,42,46.4v69h-39.6v-54.4c0-10.7,1.7-29.4-17.8-29.4
	c-16.1,0-20.7,12-20.7,25.9v57.9H-822V487.2h39.6v14.4H-782z"/>
<path class="st0" d="M-738.1,617.2c-7,11.1-20.7,16.1-33.7,16.1c-33.1,0-56.4-27.6-56.4-59.7c0-32,22.9-59.4,55.9-59.4
	c12.8,0,26.3,4.8,34.6,14.6V449h39.6v180.7h-39.6v-12.4H-738.1z M-787.3,573.9c0,14.2,9.4,25,25.5,25c16.1,0,25.5-10.9,25.5-25
	c0-13.7-9.4-25.2-25.5-25.2C-777.9,548.7-787.3,560.2-787.3,573.9z"/>
<path class="st0" d="M-730.8,514c-6.1-3.3-14.6-5.4-21.3-5.4c-4.6,0-12.4,2-12.4,7.6c0,7.6,12.4,8.7,17.8,9.8
	c18.5,3.7,32.4,12.4,32.4,33.1c0,29.4-26.8,41.6-52.7,41.6c-15.9,0-31.6-4.6-45.1-12.8l14.4-27.6c8.1,5.7,21.5,11.3,31.3,11.3
	c5,0,12.4-2.4,12.4-8.5c0-8.7-12.4-9.1-24.8-12.4c-12.4-3.3-24.8-9.4-24.8-29.4c0-27.4,24.8-39.6,49.2-39.6c12.6,0,25.2,2,36.8,7.2
	L-730.8,514z"/>
</svg>
