<?xml version="1.0" encoding="utf-8"?>
<!-- Generator: Adobe Illustrator 19.1.0, SVG Export Plug-In . SVG Version: 6.00 Build 0)  -->
<svg version="1.1" id="Layer_1" xmlns="http://www.w3.org/2000/svg" xmlns:xlink="http://www.w3.org/1999/xlink" x="0px" y="0px"
	 width="97.3px" height="97.3px" viewBox="-910 492.7 97.3 97.3" enable-background="new -910 492.7 97.3 97.3"
	 xml:space="preserve">
<g>
	<path d="M-851.4,541.4c0,2.8-1,5.2-2.8,7.1v6.8c5.1-2.6,8.5-7.8,8.5-13.9c0-6.1-3.4-11.3-8.5-13.9v6.9
		C-852.4,536.2-851.4,538.7-851.4,541.4z"/>
	<polygon points="-862.8,562.6 -879.7,551.3 -891.1,551.3 -891.1,531.5 -879.7,531.5 -862.8,520.2 	"/>
	<path d="M-851.5,513.3c-0.9-0.3-1.8-0.6-2.8-0.8v5.7c9.9,3,17,12.2,17,23.1c0,10.9-7.1,20.1-17,23.1v5.7c0.9-0.2,1.7-0.4,2.5-0.7
		c11.7-4,20.1-15.1,20.1-28.1C-831.6,528.4-839.9,517.4-851.5,513.3z"/>
</g>
</svg>
